<svg width="40" height="40" viewBox="0 0 40 40" fill="none" xmlns="http://www.w3.org/2000/svg">
<path d="M18.0009 7.764V34.48C18.0003 35.3089 17.7072 36.1111 17.1732 36.7451C16.6392 37.3791 15.8986 37.8043 15.0818 37.9458C14.265 38.0873 13.4245 37.936 12.7084 37.5186C11.9922 37.1012 11.4463 36.4444 11.1669 35.664L6.87291 23.364M32.0009 22C33.5922 22 35.1183 21.3679 36.2436 20.2426C37.3688 19.1174 38.0009 17.5913 38.0009 16C38.0009 14.4087 37.3688 12.8826 36.2436 11.7574C35.1183 10.6321 33.5922 10 32.0009 10V22ZM6.87291 23.366C5.17535 22.6442 3.77928 21.3581 2.92097 19.7253C2.06266 18.0925 1.79482 16.2134 2.16278 14.4058C2.53074 12.5982 3.5119 10.9733 4.94021 9.806C6.36853 8.63869 8.15627 8.0007 10.0009 8H13.6649C21.8649 8 28.9149 5.532 32.0009 2V30C28.9149 26.468 21.8669 24 13.6649 24H10.0009C8.92618 24.0016 7.86221 23.7859 6.87291 23.366Z" stroke="white" stroke-width="3" stroke-linecap="round" stroke-linejoin="round"/>
</svg>
